Results
version=1
nRows=14
nColumns=24
inDegrees=yes
endheader
time	pelvis_tilt	pelvis_list	pelvis_rotation	pelvis_tx	pelvis_ty	pelvis_tz	hip_flexion_r	hip_adduction_r	hip_rotation_r	knee_angle_r	ankle_angle_r	subtalar_angle_r	mtp_angle_r	hip_flexion_l	hip_adduction_l	hip_rotation_l	knee_angle_l	ankle_angle_l	subtalar_angle_l	mtp_angle_l	lumbar_extension	lumbar_bending	lumbar_rotation
      0.65800000	     -2.70561726	     -1.05963149	     -2.28907837	     -0.53872405	      1.06902174	      0.34228004	     16.92386956	      4.89192928	     -5.17115958	    -19.99955710	      4.70117565	     -0.28870038	      1.56023588	     21.50784919	     -1.80027641	     -1.32806102	    -67.96347363	      4.07099822	      1.43368342	      4.78201137	      2.99914504	      6.20105063	      2.74606923
      0.66216667	     -2.69253338	     -1.06147590	     -2.29357873	     -0.53356460	      1.06972695	      0.34257311	     16.53978510	      4.90620585	     -5.12920117	    -19.87575030	      4.86494401	     -0.19393334	      1.57670565	     22.05698365	     -1.77639068	     -1.11156831	    -67.69962973	      4.48142991	      1.26448921	      4.81273882	      2.96914319	      6.13771364	      2.80869166
      0.66633333	     -2.68668450	     -1.04093056	     -2.29806338	     -0.52838826	      1.07041537	      0.34272849	     16.16756475	      4.88114560	     -5.11810308	    -19.76806439	      5.05871023	     -0.10959785	      1.59363050	     22.59134790	     -1.71066294	     -0.89942468	    -67.35088034	      4.95114564	      1.04333491	      4.84389084	      2.94528416	      6.11220856	      2.87124048
      0.67050000	     -2.66929046	     -1.02430489	     -2.30574235	     -0.52320632	      1.07110974	      0.34290504	     15.77747226	      4.86498207	     -5.09083008	    -19.64910318	      5.23830859	     -0.02631505	      1.60940698	     23.09107219	     -1.64931443	     -0.69436834	    -66.91827837	      5.36188279	      0.81482806	      4.87075452	      2.91966322	      6.08317239	      2.93145742
      0.67466667	     -2.66866842	     -0.99850068	     -2.31778707	     -0.51802175	      1.07175863	      0.34304319	     15.40669173	      4.83692748	     -5.07441257	    -19.53355112	      5.42819247	      0.05691950	      1.62677724	     23.58740945	     -1.57334928	     -0.49909941	    -66.40422647	      5.76167291	      0.53869424	      4.89806946	      2.89550564	      6.05791883	      2.99693912
      0.67883333	     -2.65834497	     -0.97877069	     -2.32271701	     -0.51281405	      1.07241103	      0.34322438	     15.01348704	      4.82271014	     -5.03200912	    -19.39140889	      5.58850209	      0.11840192	      1.64121382	     24.04985810	     -1.50706696	     -0.30695215	    -65.80753430	      6.07521908	      0.27031675	      4.91838570	      2.88090839	      6.02295709	      3.05570354
      0.68300000	     -2.65424859	     -0.94815396	     -2.34607570	     -0.50767244	      1.07301708	      0.34331334	     14.64151728	      4.78929095	     -5.00099453	    -19.27609056	      5.80489749	      0.26214182	      1.67646237	     24.50182912	     -1.42209669	     -0.13908558	    -65.13700266	      6.35241915	     -0.19230470	      4.96226812	      2.78147590	      6.02632326	      3.15916872
      0.68716667	     -2.66662197	     -0.91762453	     -2.35431882	     -0.50247126	      1.07358799	      0.34345175	     14.26895487	      4.76396850	     -4.92072666	    -19.12573179	      5.87210842	      0.26072133	      1.68147776	     24.94329183	     -1.34067489	      0.05445262	    -64.37686382	      6.50381925	     -0.32124051	      4.96784897	      2.76479196	      6.00446241	      3.18186021
      0.69133333	     -2.62918487	     -0.91486876	     -2.33774068	     -0.49713652	      1.07423425	      0.34366013	     13.81689236	      4.77664002	     -4.89323466	    -18.93233728	      6.05823130	      0.23974015	      1.69287739	     25.29928749	     -1.28930259	      0.23441493	    -63.55120330	      6.84765709	     -0.75071737	      4.97784034	      2.83738088	      5.92663833	      3.24726994
      0.69550000	     -2.61489895	     -0.88113562	     -2.36451007	     -0.49199515	      1.07477565	      0.34369674	     13.42793724	      4.74119286	     -4.85364231	    -18.80280606	      6.25047457	      0.24554137	      1.71467616	     25.67030765	     -1.19657114	      0.37963788	    -62.65393212	      7.04228568	     -1.39324681	      4.98795387	      2.68419906	      5.92069295	      3.31239332
      0.69966667	     -2.59578705	     -0.86139394	     -2.36259481	     -0.48671954	      1.07533081	      0.34380876	     13.00277279	      4.73159441	     -4.78745724	    -18.61757508	      6.38496878	      0.23511052	      1.73583942	     26.00096440	     -1.12025978	      0.54615851	    -61.66989040	      7.13069519	     -1.90801669	      4.99272555	      2.66375404	      5.88223734	      3.38852477
      0.70383333	     -2.60777606	     -0.86228166	     -2.34626920	     -0.48142282	      1.07578857	      0.34396757	     12.59804903	      4.75420544	     -4.68232488	    -18.40883497	      6.47196450	      0.20970747	      1.74344806	     26.34476475	     -1.07000274	      0.73613479	    -60.63143049	      7.24924248	     -2.16995922	      4.99073380	      2.72292083	      5.87503615	      3.42418402
      0.70800000	     -2.59034342	     -0.84209335	     -2.36069770	     -0.47619721	      1.07625835	      0.34402541	     12.18014018	      4.74729275	     -4.59354036	    -18.23037507	      6.62625443	      0.09406504	      1.76206090	     26.63239388	     -0.99309410	      0.87244522	    -59.51285249	      7.29511190	     -2.93347277	      4.97353357	      2.61494785	      5.83454592	      3.48791187
      0.71216667	     -2.59487679	     -0.84903648	     -2.33532865	     -0.47087141	      1.07666460	      0.34414356	     11.75821114	      4.77890389	     -4.48391048	    -17.99904215	      6.69834334	      0.04656247	      1.76774673	     26.91748685	     -0.94449063	      1.05925827	    -58.33690611	      7.36205082	     -3.18466064	      4.96390127	      2.69413067	      5.85340858	      3.51873051
